:SAMPLES-PER-SECOND 30
:FULLY-SPECIFIED
:DEGREES
345
root  31.3176 34.302 12.5476 -172.354 20.0287 179.204
LeftUpLeg  -12.0849 11.6271 2.43508
LeftLeg  11.5264 8.74019 1.19803
LeftFoot  4.10034 -0.0274561 0.640019
LeftToes  -20.2949 2.48695e-006 -1.03773e-007
Spine  1.98518 0.977709 -0.144067
Spine1  3.87917 1.98332 -0.144154
RightShoulder  0.0548109 7.34303 6.19658
RightArm  -40.7723 -19.1117 71.2796
RightForeArm  35.2877 10.0745 1.78956
RightHand  0.407281 -6.13123 -7.21594
LeftShoulder1  0.0309855 0.0264454 -8.96325
LeftArm  -22.4644 16.2204 -66.5873
LeftForeArm  37.5654 -9.98132 -1.76983
LeftHand  0.17581 4.25874 4.42861
HEad  -4.41951 -11.7112 0.999444
RightUpLeg  -8.78503 -3.80047 -4.21982
RightLeg  10.9462 6.13351 0.782013
RightFoot  -0.829583 -0.0024596 -0.0434661
RightToes  -27.4973 -0.126379 -0.233418
346
root  31.2137 34.301 12.4384 -172.367 20.7375 179.231
LeftUpLeg  -11.9398 11.9168 2.23722
LeftLeg  11.7718 9.14252 1.29248
LeftFoot  3.62059 -0.0237406 0.594689
LeftToes  -19.7668 2.48695e-006 -1.03773e-007
Spine  2.00602 0.910963 -0.342249
Spine1  3.8943 1.85703 -0.522983
RightShoulder  0.0528933 7.18736 6.04548
RightArm  -38.7918 -17.4325 72.547
RightForeArm  34.2794 11.0635 1.97024
RightHand  0.378979 -6.04653 -6.78892
LeftShoulder1  0.0363002 -0.130588 -9.01184
LeftArm  -22.2912 15.4272 -66.4131
LeftForeArm  36.9833 -10.2642 -1.82165
LeftHand  0.175002 4.21561 4.37501
HEad  -5.04774 -18.9612 1.70909
RightUpLeg  -8.82723 -3.79905 -4.48656
RightLeg  11.0779 6.81742 0.884634
RightFoot  -0.779209 -0.00192391 -0.0430447
RightToes  -27.819 -0.129111 -0.236416
347
root  31.1135 34.3011 12.3407 -172.377 21.4562 179.269
LeftUpLeg  -11.8231 12.1945 2.06088
LeftLeg  12.0333 9.55834 1.39504
LeftFoot  3.18565 -0.0202375 0.549268
LeftToes  -19.3931 2.48695e-006 -1.03773e-007
Spine  2.04217 0.848177 -0.533259
Spine1  3.93751 1.7294 -0.879331
RightShoulder  0.0494527 7.02125 5.94134
RightArm  -36.225 -15.633 73.8216
RightForeArm  33.1222 12.321 2.20168
RightHand  0.342246 -5.91403 -6.2413
LeftShoulder1  0.0425083 -0.306486 -9.01441
LeftArm  -21.8138 14.3555 -66.3988
LeftForeArm  36.4251 -10.6683 -1.89555
LeftHand  0.16933 4.13597 4.30966
HEad  -5.73595 -25.4214 2.46843
RightUpLeg  -8.86698 -3.63573 -4.72481
RightLeg  11.1536 7.34317 0.962289
RightFoot  -0.686442 -0.00174031 -0.0353249
RightToes  -28.1962 -0.131699 -0.239235
348
root  31.0131 34.3035 12.2528 -172.412 22.1781 179.311
LeftUpLeg  -11.6464 12.2879 1.905
LeftLeg  12.1986 10.1381 1.50854
LeftFoot  2.82353 -0.0177743 0.516942
LeftToes  -19.001 2.48695e-006 -1.03773e-007
Spine  2.0774 0.781963 -0.698704
Spine1  3.97922 1.58531 -1.17879
RightShoulder  0.0455474 6.80272 5.85074
RightArm  -33.1159 -13.7732 75.0493
RightForeArm  31.9674 13.727 2.46307
RightHand  0.30932 -5.7579 -5.76835
LeftShoulder1  0.0488389 -0.471489 -8.99429
LeftArm  -20.8505 13.146 -66.5114
LeftForeArm  35.7698 -11.2804 -2.00772
LeftHand  0.162417 4.0595 4.20322
HEad  -6.31412 -30.6949 3.16183
RightUpLeg  -8.87399 -3.37156 -4.95797
RightLeg  11.1656 7.7808 1.02094
RightFoot  -0.547659 -0.00190155 -0.0203482
RightToes  -28.5292 -0.133925 -0.241614
349
root  30.9119 34.3099 12.17 -172.464 22.9046 179.354
LeftUpLeg  -11.3768 12.2629 1.75272
LeftLeg  12.1835 10.8444 1.60955
LeftFoot  2.53923 -0.0162552 0.496544
LeftToes  -18.5402 2.48695e-006 -1.03773e-007
Spine  2.10815 0.709771 -0.828301
Spine1  4.01774 1.41846 -1.40014
RightShoulder  0.0428098 6.59378 5.71664
RightArm  -29.924 -11.9308 76.2359
RightForeArm  31.0156 15.1734 2.73521
RightHand  0.277762 -5.47945 -5.42296
LeftShoulder1  0.0545838 -0.61182 -8.98274
LeftArm  -19.6469 11.822 -66.7069
LeftForeArm  35.1179 -12.0246 -2.14459
LeftHand  0.154449 4.00839 4.03448
HEad  -6.78807 -34.5045 3.60019
RightUpLeg  -8.85288 -3.20322 -5.18691
RightLeg  11.125 8.31819 1.08498
RightFoot  -0.372917 -0.00123022 -0.000478238
RightToes  -28.8662 -0.136253 -0.243873
